<svg version="1.1" viewBox="0.0 0.0 720.0 720.0" fill="none" stroke="none" stroke-linecap="square" stroke-miterlimit="10" xmlns:xlink="http://www.w3.org/1999/xlink" xmlns="http://www.w3.org/2000/svg"><clipPath id="p.0"><path d="m0 0l720.0 0l0 720.0l-720.0 0l0 -720.0z" clip-rule="nonzero"/></clipPath><g clip-path="url(#p.0)"><path fill="#000000" fill-opacity="0.0" d="m0 0l720.0 0l0 720.0l-720.0 0z" fill-rule="evenodd"/><defs><linearGradient id="p.1" gradientUnits="userSpaceOnUse" gradientTransform="matrix(18.469597323258903 0.0 0.0 18.469597323258903 0.0 0.0)" spreadMethod="pad" x1="38.99591488317695" y1="29.777532991614162" x2="38.99611916298951" y2="11.307935669484968"><stop offset="0.0" stop-color="#ff5252" stop-opacity="0.5294118"/><stop offset="1.0" stop-color="#ffab40" stop-opacity="0.5294118"/></linearGradient></defs><path fill="url(#p.1)" d="m0.23884514 549.9711l720.0 0l0 -244.77692l-80.973755 140.24936l-63.393677 -236.59056l-77.05774 133.46721l-92.97113 -53.677185l-48.96588 182.74017l-58.95276 -102.11023l-39.60367 147.8005l-79.50658 -296.72443l-64.64042 111.96065l-74.107605 -74.107635l-39.293964 146.64569z" fill-rule="evenodd"/><defs><linearGradient id="p.2" gradientUnits="userSpaceOnUse" gradientTransform="matrix(19.487574066093785 0.0 0.0 19.487574066093785 0.0 0.0)" spreadMethod="pad" x1="1.4309216276305105E-6" y1="8.7293684509877" x2="-6.911390684857166E-5" y2="28.216942516953793"><stop offset="0.0" stop-color="#ff5252"/><stop offset="1.0" stop-color="#ffab40"/></linearGradient></defs><path fill="url(#p.2)" d="m187.42062 250.20073c9.427963 0 16.498947 2.5158691 21.212921 7.547592c4.7669525 5.031708 7.1504364 12.923584 7.1504364 23.675598l0 17.558075c0 10.751984 -2.383484 18.64386 -7.1504364 23.675598c-4.713974 5.031708 -11.784958 7.547577 -21.212921 7.547577l-26.377121 0l0 -80.00444zm-187.4206 -80.08391l0 80.08391l24.390896 0l0 219.59514l-24.390896 0l0 80.08389l193.29984 0l0 -80.08389l-32.256363 0l0 -80.004456c14.671616 0 25.979874 1.1387634 33.92479 3.4162903c7.997879 2.2775269 13.850632 6.673645 17.558273 13.188416c3.7605896 6.5147705 5.6408844 16.101501 5.6408844 28.760284l0 114.72336l154.767 0l0 -80.08389l-22.960815 0l0 -37.57904c0 -33.52719 -15.625 -52.727203 -46.875 -57.600037l-0.4767151 -4.846344c16.26059 -6.196991 28.787079 -17.266754 37.579468 -33.20941c8.792358 -15.942627 13.188568 -34.82486 13.188568 -56.646637c0 -38.71782 -11.069916 -66.683624 -33.209778 -83.89743c-22.086853 -17.26677 -54.131348 -25.900146 -96.133484 -25.900146z" fill-rule="evenodd"/><defs><linearGradient id="p.3" gradientUnits="userSpaceOnUse" gradientTransform="matrix(19.487574066093785 0.0 0.0 19.487574066093785 0.0 0.0)" spreadMethod="pad" x1="1.4309216276305105E-6" y1="8.7293684509877" x2="-6.911390684857166E-5" y2="28.216942516953793"><stop offset="0.0" stop-color="#ff5252"/><stop offset="1.0" stop-color="#ffab40"/></linearGradient></defs><path fill="url(#p.3)" d="m390.50845 170.11682l0 80.08391l24.3909 0l0 219.59514l-24.3909 0l0 80.08389l329.47574 0l0 -157.14874l-109.32208 0l0 77.06485l-59.11017 0l0 -86.837006l42.981995 0l0 -55.693268l-42.981995 0l0 -77.064865l59.11017 0l0 67.29271l109.32208 0l0 -147.37662z" fill-rule="evenodd"/></g></svg>